<?xml version="1.0" standalone="no"?>
<!DOCTYPE svg PUBLIC "-//W3C//DTD SVG 20010904//EN"
 "http://www.w3.org/TR/2001/REC-SVG-20010904/DTD/svg10.dtd">
<svg version="1.0" xmlns="http://www.w3.org/2000/svg"
 width="16.000000pt" height="16.000000pt" viewBox="0 0 16.000000 16.000000"
 preserveAspectRatio="xMidYMid meet">
<metadata>
Created by potrace 1.11, written by Peter Selinger 2001-2013
</metadata>
<g transform="translate(0.000000,16.000000) scale(0.006154,-0.006154)"
fill="#000000" stroke="none">
<path d="M930 2135 l0 -465 -442 0 c-244 0 -453 -3 -465 -6 l-23 -6 0 -363 0
-363 22 -6 c13 -3 222 -6 466 -6 l442 0 0 -460 0 -460 375 0 375 0 0 460 0
460 460 0 460 0 0 375 0 375 -460 0 -460 0 0 465 0 465 -375 0 -375 0 0 -465z"/>
</g>
</svg>
